<?xml version="1.0" encoding="UTF-8" standalone="no"?>
<!-- Created with Inkscape (http://www.inkscape.org/) -->

<svg
   width="72"
   height="63"
   viewBox="0 0 72 63"
   version="1.1"
   id="svg5"
   xmlns="http://www.w3.org/2000/svg"
   xmlns:svg="http://www.w3.org/2000/svg">
  <path
     style="stroke-width:0.0727132"
	 fill="#e7ddc1"
     d="M 3.6954428,61.887363 C 2.8450027,61.715661 2.0109422,61.148665 1.5526902,60.430691 1.4472143,60.265447 1.2749261,59.877448 1.1698243,59.568474 1.0006099,59.071079 0.98243069,58.923132 1.011115,58.277415 1.0512549,57.37374 1.0537826,57.368013 2.7468167,54.414014 5.1775048,50.172797 14.015147,34.956059 16.836911,30.153557 c 1.565709,-2.664758 3.865047,-6.582594 5.109647,-8.706304 2.454438,-4.188106 2.714124,-4.555291 3.521856,-4.979765 1.436998,-0.755163 3.202234,-0.548402 4.264212,0.499468 0.379954,0.374899 0.920134,1.284571 4.931919,8.30543 4.52497,7.91896 4.913852,8.584043 11.331847,19.380059 1.761484,2.963052 3.709958,6.26378 4.329952,7.334955 0.620005,1.071175 1.221567,2.065343 1.33682,2.209261 0.115243,0.143912 0.384696,0.357627 0.598772,0.474913 l 0.389236,0.213253 3.728855,0.04846 c 2.050876,0.02665 3.844017,0.0305 3.984769,0.0086 0.543598,-0.08474 0.718939,-0.30614 0.577722,-0.729457 -0.04914,-0.147194 -0.746602,-1.406573 -1.549987,-2.79861 C 56.604234,46.582479 50.064302,35.342204 48.116638,32.03376 41.514596,20.819054 41.605552,20.984145 41.429968,19.897097 c -0.239869,-1.485081 0.537925,-2.915314 1.935603,-3.559258 1.434187,-0.660763 2.813301,-0.461918 3.675126,0.529892 0.516935,0.594904 1.092735,1.385901 1.643733,2.258042 2.434187,3.852979 20.398357,34.464333 21.50724,36.648849 0.187838,0.370044 0.446271,0.972055 0.574283,1.337803 0.212863,0.608165 0.232862,0.742242 0.234025,1.568917 0.002,1.122749 -0.135242,1.523511 -0.74099,2.170631 -0.469607,0.501676 -1.054436,0.81559 -1.814991,0.974224 -0.730809,0.152423 -18.734068,0.161672 -19.302346,0.0099 C 47.91702,61.509058 47.252093,60.906092 46.352818,59.307165 45.756978,58.247741 43.807049,54.928364 42.013311,51.92 41.159595,50.48819 39.324919,47.347969 37.93625,44.941733 33.289375,36.889774 28.105494,27.986596 27.925825,27.749085 c -0.226077,-0.298851 -0.552929,-0.468553 -0.789391,-0.409854 -0.40243,0.0999 -0.736157,0.609586 -3.467278,5.295535 -0.772182,1.324873 -3.289288,5.604033 -5.59358,9.509245 -4.486104,7.602863 -6.735758,11.524208 -6.85367,11.946556 -0.08756,0.31366 0.04691,0.573816 0.360773,0.698015 0.135728,0.05371 3.412791,0.09377 10.506451,0.128436 9.629824,0.04707 10.3357,0.05893 10.711337,0.179952 0.931822,0.300225 1.729898,0.833639 2.248896,1.503134 0.162814,0.21002 0.873806,1.45571 1.579995,2.768202 l 1.283981,2.386351 -0.381268,0.05829 c -0.346578,0.05298 -7.418814,0.09044 -26.551601,0.140636 -5.001876,0.01312 -6.9813088,-0.0048 -7.2850272,-0.06619 z M 36.976229,10.550732 C 36.373989,10.390545 35.733045,10.020585 35.28732,9.575885 34.748323,9.038114 33.122071,6.247581 32.935406,5.5401648 c -0.552485,-2.093805 0.869832,-4.1977611 3.045556,-4.5051211 1.079227,-0.15246002 2.166847,0.196948 2.995205,0.9622341 0.358428,0.331143 0.595779,0.672623 1.265145,1.820209 1.022414,1.752862 1.162904,2.055128 1.268521,2.7293872 0.279372,1.783356 -0.909851,3.535663 -2.723517,4.013099 -0.496107,0.130598 -1.299774,0.126495 -1.810087,-0.0092 z"
     id="aisoc-logo-svg" />
</svg>
